<svg xmlns="http://www.w3.org/2000/svg" xmlns:xlink="http://www.w3.org/1999/xlink" width="1920" zoomAndPan="magnify" viewBox="0 0 1440 809.999993" height="1080" preserveAspectRatio="xMidYMid meet" version="1.0"><defs><g/></defs><g fill="#ff0000" fill-opacity="1"><g transform="translate(363.207878, 465.869865)"><g><path d="M 137.453125 -280.46875 C 145.128906 -279.9375 152.015625 -275.960938 158.109375 -268.546875 C 159.171875 -266.960938 160.226562 -265.441406 161.28125 -263.984375 C 162.34375 -262.523438 163.140625 -260.867188 163.671875 -259.015625 C 165.265625 -255.046875 165.796875 -249.351562 165.265625 -241.9375 C 164.734375 -234.519531 165.128906 -228.492188 166.453125 -223.859375 C 167.773438 -219.222656 169.097656 -214.785156 170.421875 -210.546875 C 172.804688 -203.128906 171.351562 -193.195312 166.0625 -180.75 C 162.082031 -169.363281 157.179688 -162.613281 151.359375 -160.5 L 144.203125 -158.109375 C 137.316406 -155.722656 131.421875 -154.859375 126.515625 -155.515625 C 121.617188 -156.179688 118.242188 -157.578125 116.390625 -159.703125 C 111.097656 -166.585938 109.773438 -174.53125 112.421875 -183.53125 C 112.953125 -185.382812 112.953125 -188.296875 112.421875 -192.265625 C 111.890625 -196.242188 109.640625 -198.765625 105.671875 -199.828125 C 103.554688 -200.359375 102.164062 -201.285156 101.5 -202.609375 C 100.832031 -203.929688 100.300781 -205.054688 99.90625 -205.984375 C 99.507812 -206.910156 99.113281 -207.570312 98.71875 -207.96875 C 98.320312 -208.363281 97.0625 -207.765625 94.9375 -206.171875 C 92.820312 -204.585938 91.628906 -203.726562 91.359375 -203.59375 C 91.097656 -203.46875 90.238281 -203.664062 88.78125 -204.1875 C 87.332031 -204.71875 85.941406 -204.585938 84.609375 -203.796875 C 83.285156 -203.003906 81.960938 -201.546875 80.640625 -199.421875 C 75.878906 -191.210938 74.953125 -177.835938 77.859375 -159.296875 C 78.921875 -153.734375 79.984375 -148.570312 81.046875 -143.8125 C 83.160156 -131.894531 84.148438 -123.945312 84.015625 -119.96875 C 83.890625 -116 83.097656 -111.828125 81.640625 -107.453125 C 80.179688 -103.085938 78.921875 -98.785156 77.859375 -94.546875 C 74.679688 -83.691406 75.082031 -74.421875 79.0625 -66.734375 C 83.820312 -57.203125 86.863281 -51.644531 88.1875 -50.0625 C 90.570312 -47.675781 93.484375 -46.679688 96.921875 -47.078125 C 100.367188 -47.472656 103.019531 -49.191406 104.875 -52.234375 C 106.726562 -55.285156 108.445312 -58.597656 110.03125 -62.171875 C 111.625 -65.742188 113.347656 -69.117188 115.203125 -72.296875 C 117.054688 -75.472656 119.238281 -77.328125 121.75 -77.859375 C 124.269531 -78.390625 127.515625 -78.457031 131.484375 -78.0625 C 135.460938 -77.664062 138.179688 -77.46875 139.640625 -77.46875 C 141.097656 -77.46875 142.882812 -76.601562 145 -74.875 C 147.113281 -73.15625 148.238281 -69.316406 148.375 -63.359375 C 148.507812 -57.398438 148.707031 -52.632812 148.96875 -49.0625 C 149.238281 -45.488281 148.3125 -42.3125 146.1875 -39.53125 C 144.070312 -36.75 142.679688 -34.234375 142.015625 -31.984375 C 141.359375 -29.734375 140.894531 -27.546875 140.625 -25.421875 C 140.363281 -19.859375 139.367188 -15.753906 137.640625 -13.109375 C 135.921875 -10.460938 134.332031 -8.273438 132.875 -6.546875 C 131.425781 -4.828125 127.585938 -3.96875 121.359375 -3.96875 C 115.140625 -3.96875 109.515625 -1.054688 104.484375 4.765625 C 99.453125 10.585938 94.679688 13.164062 90.171875 12.5 C 85.671875 11.84375 82.492188 9.132812 80.640625 4.375 C 78.785156 0.132812 74.679688 -2.117188 68.328125 -2.390625 C 66.472656 -2.648438 64.75 -3.109375 63.15625 -3.765625 C 61.570312 -4.429688 59.71875 -4.960938 57.59375 -5.359375 C 55.476562 -5.753906 53.363281 -6.613281 51.25 -7.9375 C 45.945312 -10.851562 41.578125 -15.488281 38.140625 -21.84375 C 36.015625 -25.820312 33.957031 -29.132812 31.96875 -31.78125 C 29.988281 -34.425781 28.335938 -36.941406 27.015625 -39.328125 C 23.566406 -44.628906 22.242188 -49.660156 23.046875 -54.421875 C 24.628906 -67.140625 22.90625 -75.484375 17.875 -79.453125 C 14.957031 -81.304688 13.5 -82.757812 13.5 -83.8125 C 13.5 -84.875 12.972656 -87.128906 11.921875 -90.578125 C 10.328125 -95.347656 10.390625 -100.910156 12.109375 -107.265625 C 13.835938 -113.617188 14.4375 -118.847656 13.90625 -122.953125 C 13.375 -127.054688 12.710938 -131.359375 11.921875 -135.859375 C 10.328125 -147.515625 10.191406 -155.195312 11.515625 -158.90625 C 12.835938 -162.613281 13.164062 -167.910156 12.5 -174.796875 C 11.84375 -181.679688 11.515625 -187.304688 11.515625 -191.671875 C 11.515625 -196.046875 11.179688 -201.804688 10.515625 -208.953125 C 9.859375 -216.109375 9.796875 -223.789062 10.328125 -232 C 12.179688 -252.65625 19.203125 -266.828125 31.390625 -274.515625 C 49.660156 -285.367188 61.3125 -290.53125 66.34375 -290 C 67.925781 -290 69.84375 -289.800781 72.09375 -289.40625 C 74.351562 -289.007812 76.539062 -289.078125 78.65625 -289.609375 C 80.78125 -290.140625 82.632812 -290.929688 84.21875 -291.984375 C 85.8125 -293.046875 87.398438 -294.238281 88.984375 -295.5625 C 95.335938 -301.382812 101.03125 -302.046875 106.0625 -297.546875 C 110.832031 -291.984375 114.539062 -288.273438 117.1875 -286.421875 C 121.695312 -282.984375 128.453125 -281 137.453125 -280.46875 Z M 137.453125 -280.46875 "/></g></g><g transform="translate(538.402016, 465.869865)"><g><path d="M 14.890625 -222.265625 C 14.492188 -225.578125 14.296875 -228.953125 14.296875 -232.390625 C 14.296875 -235.835938 14.828125 -239.878906 15.890625 -244.515625 C 16.953125 -249.148438 19.664062 -253.382812 24.03125 -257.21875 C 28.40625 -261.0625 32.179688 -264.90625 35.359375 -268.75 C 38.535156 -272.59375 41.316406 -276.5 43.703125 -280.46875 C 46.085938 -284.4375 49 -287.613281 52.4375 -290 C 64.351562 -298.207031 81.039062 -301.382812 102.5 -299.53125 C 111.238281 -298.738281 120.503906 -295.5625 130.296875 -290 C 135.066406 -287.351562 139.171875 -282.519531 142.609375 -275.5 C 146.054688 -268.476562 148.441406 -263.644531 149.765625 -261 C 151.085938 -258.351562 152.804688 -256.429688 154.921875 -255.234375 C 157.046875 -254.046875 158.96875 -252.390625 160.6875 -250.265625 C 162.414062 -248.148438 164.269531 -244.773438 166.25 -240.140625 C 168.238281 -235.503906 170.03125 -230.144531 171.625 -224.0625 C 175.851562 -210.019531 177.703125 -198.226562 177.171875 -188.6875 C 176.648438 -179.15625 176.253906 -169.492188 175.984375 -159.703125 C 175.453125 -142.222656 173.726562 -129.640625 170.8125 -121.953125 C 167.90625 -114.273438 165.722656 -107.851562 164.265625 -102.6875 C 162.804688 -97.53125 161.941406 -92.832031 161.671875 -88.59375 C 161.410156 -84.351562 161.28125 -80.25 161.28125 -76.28125 C 160.757812 -65.6875 160.035156 -59.328125 159.109375 -57.203125 C 158.179688 -55.085938 156.65625 -52.96875 154.53125 -50.84375 C 152.414062 -48.726562 150.097656 -46.675781 147.578125 -44.6875 C 145.066406 -42.707031 142.617188 -40.789062 140.234375 -38.9375 C 137.847656 -37.082031 136.125 -35.554688 135.0625 -34.359375 C 134.007812 -33.171875 132.753906 -31.515625 131.296875 -29.390625 C 129.835938 -27.273438 128.378906 -25.023438 126.921875 -22.640625 C 125.460938 -20.253906 124.140625 -18.066406 122.953125 -16.078125 C 121.765625 -14.097656 120.90625 -12.644531 120.375 -11.71875 C 119.84375 -10.789062 118.914062 -9.132812 117.59375 -6.75 C 116.269531 -4.363281 114.679688 -1.847656 112.828125 0.796875 C 102.492188 13.503906 92.691406 14.035156 83.421875 2.390625 C 82.628906 1.054688 81.367188 0.390625 79.640625 0.390625 C 77.921875 0.390625 75.9375 0.984375 73.6875 2.171875 C 71.4375 3.367188 68.328125 3.304688 64.359375 1.984375 C 60.378906 0.660156 57.265625 -1.519531 55.015625 -4.5625 C 52.765625 -7.613281 50.644531 -10.066406 48.65625 -11.921875 C 46.675781 -13.773438 44.757812 -15.226562 42.90625 -16.28125 C 41.050781 -17.34375 39.195312 -18.269531 37.34375 -19.0625 C 32.3125 -21.71875 29.660156 -23.90625 29.390625 -25.625 C 29.128906 -27.34375 28.929688 -28.992188 28.796875 -30.578125 C 28.671875 -32.171875 28.34375 -34.160156 27.8125 -36.546875 C 25.6875 -49.253906 20.519531 -67.265625 12.3125 -90.578125 C 5.957031 -108.054688 4.238281 -126.195312 7.15625 -145 C 9.269531 -158.769531 11.253906 -170.289062 13.109375 -179.5625 C 16.023438 -193.601562 17.148438 -203.398438 16.484375 -208.953125 C 15.828125 -214.515625 15.296875 -218.953125 14.890625 -222.265625 Z M 91.953125 -199.625 C 87.054688 -199.226562 83.8125 -197.375 82.21875 -194.0625 C 80.632812 -190.75 79.445312 -187.566406 78.65625 -184.515625 C 77.863281 -181.472656 76.867188 -179.023438 75.671875 -177.171875 C 74.484375 -175.316406 73.359375 -173.46875 72.296875 -171.625 C 67.796875 -165 67.269531 -158.109375 70.71875 -150.953125 C 75.75 -140.628906 78.394531 -133.8125 78.65625 -130.5 C 78.925781 -127.1875 79.191406 -122.414062 79.453125 -116.1875 C 79.710938 -109.96875 80.242188 -103.550781 81.046875 -96.9375 C 83.421875 -80.25 86.992188 -71.90625 91.765625 -71.90625 C 94.410156 -71.90625 96.925781 -74.953125 99.3125 -81.046875 C 99.84375 -82.367188 100.171875 -84.617188 100.296875 -87.796875 C 100.429688 -90.972656 100.898438 -94.679688 101.703125 -98.921875 C 104.609375 -114.015625 105.726562 -124.472656 105.0625 -130.296875 C 104.40625 -136.128906 104.007812 -141.296875 103.875 -145.796875 C 103.75 -150.296875 103.6875 -154.929688 103.6875 -159.703125 L 103.6875 -183.9375 C 103.6875 -189.757812 102.957031 -193.925781 101.5 -196.4375 C 100.039062 -198.957031 96.859375 -200.019531 91.953125 -199.625 Z M 91.953125 -199.625 "/></g></g><g transform="translate(723.925061, 465.869865)"><g><path d="M 168.828125 -253.65625 C 171.742188 -250.875 173.597656 -246.898438 174.390625 -241.734375 C 175.191406 -236.566406 176.914062 -228.550781 179.5625 -217.6875 C 182.207031 -206.832031 181.675781 -195.179688 177.96875 -182.734375 C 175.851562 -175.585938 174.53125 -169.765625 174 -165.265625 C 172.414062 -156.785156 170.628906 -149.566406 168.640625 -143.609375 C 166.648438 -137.648438 164.726562 -130.363281 162.875 -121.75 C 161.019531 -113.144531 158.632812 -105.726562 155.71875 -99.5 C 152.8125 -93.28125 150.492188 -88.710938 148.765625 -85.796875 C 147.046875 -82.890625 145.523438 -80.242188 144.203125 -77.859375 C 141.023438 -71.765625 139.101562 -67.128906 138.4375 -63.953125 C 137.78125 -60.773438 136.851562 -57.265625 135.65625 -53.421875 C 134.46875 -49.585938 132.945312 -45.816406 131.09375 -42.109375 C 126.0625 -33.628906 119.972656 -30.453125 112.828125 -32.578125 C 103.816406 -25.421875 97.988281 -19.789062 95.34375 -15.6875 C 92.695312 -11.582031 90.3125 -8.601562 88.1875 -6.75 C 86.070312 -4.894531 84.019531 -3.570312 82.03125 -2.78125 C 80.050781 -1.988281 78.132812 -1.328125 76.28125 -0.796875 C 74.425781 -0.265625 72.570312 0.660156 70.71875 1.984375 C 68.863281 3.304688 66.28125 4.429688 62.96875 5.359375 C 59.65625 6.285156 56.273438 6.351562 52.828125 5.5625 C 44.359375 3.96875 39.859375 -2.914062 39.328125 -15.09375 C 32.441406 -17.738281 28.070312 -20.253906 26.21875 -22.640625 C 21.976562 -27.410156 19.859375 -33.566406 19.859375 -41.109375 C 19.859375 -48.660156 20.320312 -54.753906 21.25 -59.390625 C 22.175781 -64.023438 23.035156 -68.460938 23.828125 -72.703125 C 26.210938 -83.023438 26.609375 -91.164062 25.015625 -97.125 C 23.429688 -103.082031 22.96875 -108.644531 23.625 -113.8125 C 24.289062 -118.976562 24.425781 -124.671875 24.03125 -130.890625 C 23.632812 -137.117188 23.632812 -142.613281 24.03125 -147.375 C 24.425781 -152.144531 24.820312 -156.710938 25.21875 -161.078125 C 25.625 -165.453125 25.828125 -169.492188 25.828125 -173.203125 C 25.828125 -176.910156 25.03125 -180.421875 23.4375 -183.734375 C 21.851562 -187.046875 20.597656 -190.421875 19.671875 -193.859375 C 18.742188 -197.304688 18.015625 -200.488281 17.484375 -203.40625 C 16.679688 -210.550781 15.421875 -215.710938 13.703125 -218.890625 C 11.984375 -222.066406 11.253906 -225.835938 11.515625 -230.203125 C 11.785156 -234.578125 11.457031 -238.945312 10.53125 -243.3125 C 9.601562 -247.6875 9.203125 -251.128906 9.328125 -253.640625 C 9.460938 -256.160156 9.195312 -258.8125 8.53125 -261.59375 C 7.875 -264.375 8.078125 -266.03125 9.140625 -266.5625 C 10.722656 -267.351562 12.175781 -270.660156 13.5 -276.484375 C 14.832031 -282.316406 16.425781 -285.960938 18.28125 -287.421875 C 20.132812 -288.878906 22.117188 -290.203125 24.234375 -291.390625 C 26.347656 -292.585938 28.734375 -293.445312 31.390625 -293.96875 C 37.472656 -294.769531 43.097656 -293.710938 48.265625 -290.796875 C 53.429688 -287.878906 57.269531 -286.550781 59.78125 -286.8125 C 62.300781 -287.082031 64.882812 -287.878906 67.53125 -289.203125 C 76.007812 -292.648438 84.21875 -294.375 92.15625 -294.375 C 100.101562 -294.375 105.664062 -293.910156 108.84375 -292.984375 C 112.019531 -292.054688 114.535156 -291.128906 116.390625 -290.203125 C 118.242188 -289.273438 120.03125 -288.347656 121.75 -287.421875 C 123.476562 -286.492188 126 -286.03125 129.3125 -286.03125 C 132.625 -286.03125 135.070312 -285.234375 136.65625 -283.640625 C 138.25 -282.054688 139.769531 -280.203125 141.21875 -278.078125 C 142.675781 -275.960938 144.332031 -273.84375 146.1875 -271.71875 C 148.039062 -269.601562 150.488281 -268.210938 153.53125 -267.546875 C 156.582031 -266.890625 158.570312 -266.226562 159.5 -265.5625 C 160.425781 -264.90625 161.15625 -264.113281 161.6875 -263.1875 C 162.21875 -262.257812 162.8125 -261.132812 163.46875 -259.8125 C 164.132812 -258.488281 165.921875 -256.4375 168.828125 -253.65625 Z M 85.015625 -192.265625 C 82.367188 -189.359375 81.304688 -184.660156 81.828125 -178.171875 C 82.359375 -171.679688 83.285156 -164.394531 84.609375 -156.3125 C 85.941406 -148.238281 86.472656 -141.550781 86.203125 -136.25 C 85.941406 -130.957031 85.476562 -125.796875 84.8125 -120.765625 C 84.15625 -115.734375 83.492188 -110.703125 82.828125 -105.671875 C 82.171875 -100.640625 81.84375 -95.671875 81.84375 -90.765625 C 81.84375 -85.867188 82.503906 -82.359375 83.828125 -80.234375 C 85.148438 -78.117188 86.601562 -77.128906 88.1875 -77.265625 C 89.78125 -77.398438 91.367188 -78.457031 92.953125 -80.4375 C 94.546875 -82.425781 95.671875 -85.738281 96.328125 -90.375 C 96.992188 -95.007812 98.71875 -99.507812 101.5 -103.875 C 104.28125 -108.25 106.460938 -112.6875 108.046875 -117.1875 C 109.640625 -121.695312 110.632812 -125.007812 111.03125 -127.125 C 111.425781 -129.238281 111.753906 -131.15625 112.015625 -132.875 C 112.285156 -134.601562 112.488281 -136.457031 112.625 -138.4375 C 112.757812 -140.425781 113.488281 -143.539062 114.8125 -147.78125 C 116.132812 -152.019531 116.332031 -155.789062 115.40625 -159.09375 C 114.476562 -162.40625 113.75 -166.179688 113.21875 -170.421875 C 112.6875 -174.660156 111.820312 -178.566406 110.625 -182.140625 C 109.4375 -185.722656 106.726562 -188.175781 102.5 -189.5 C 100.644531 -190.019531 98.988281 -190.8125 97.53125 -191.875 C 96.070312 -192.9375 94.679688 -193.863281 93.359375 -194.65625 C 90.441406 -195.976562 87.660156 -195.179688 85.015625 -192.265625 Z M 85.015625 -192.265625 "/></g></g><g transform="translate(908.653573, 465.869865)"><g><path d="M 10.71875 -236.375 L 11.515625 -259.015625 C 11.515625 -262.722656 11.179688 -266.429688 10.515625 -270.140625 C 9.859375 -273.847656 10.785156 -277.753906 13.296875 -281.859375 C 15.816406 -285.960938 19.59375 -289.601562 24.625 -292.78125 C 29.65625 -295.957031 35.347656 -297.546875 41.703125 -297.546875 C 48.066406 -297.546875 53.101562 -296.484375 56.8125 -294.359375 C 60.519531 -292.242188 63.960938 -290.523438 67.140625 -289.203125 C 70.316406 -287.878906 73.890625 -286.820312 77.859375 -286.03125 C 86.335938 -284.707031 94.550781 -285.898438 102.5 -289.609375 C 111.238281 -293.835938 118.253906 -293.570312 123.546875 -288.8125 C 129.109375 -288.539062 134.9375 -289.070312 141.03125 -290.40625 C 151.09375 -292.519531 157.976562 -292.648438 161.6875 -290.796875 C 169.894531 -286.023438 171.21875 -276.488281 165.65625 -262.1875 C 164.863281 -260.070312 164.46875 -258.21875 164.46875 -256.625 C 164.46875 -255.039062 164.46875 -253.453125 164.46875 -251.859375 C 164.46875 -247.097656 164.066406 -243.523438 163.265625 -241.140625 C 162.472656 -238.753906 162.078125 -236.765625 162.078125 -235.171875 C 162.078125 -233.585938 162.078125 -231.738281 162.078125 -229.625 C 162.609375 -225.382812 161.945312 -221.273438 160.09375 -217.296875 C 159.03125 -214.921875 158.5 -213.003906 158.5 -211.546875 C 158.5 -210.085938 158.5 -208.695312 158.5 -207.375 C 158.5 -203.925781 156.648438 -200.613281 152.953125 -197.4375 C 146.859375 -191.082031 141.820312 -187.90625 137.84375 -187.90625 C 137.050781 -187.90625 136.257812 -188.171875 135.46875 -188.703125 C 134.675781 -189.234375 133.484375 -189.757812 131.890625 -190.28125 C 125.535156 -192.40625 118.847656 -193.734375 111.828125 -194.265625 C 104.804688 -194.796875 99.707031 -194.660156 96.53125 -193.859375 C 88.582031 -192.273438 83.6875 -188.4375 81.84375 -182.34375 C 79.71875 -175.988281 80.242188 -171.085938 83.421875 -167.640625 C 84.742188 -166.054688 86.195312 -165 87.78125 -164.46875 C 89.375 -163.9375 90.898438 -163.867188 92.359375 -164.265625 C 93.816406 -164.660156 95.800781 -164.59375 98.3125 -164.0625 C 100.832031 -163.539062 103.414062 -162.878906 106.0625 -162.078125 C 113.21875 -160.492188 118.050781 -160.296875 120.5625 -161.484375 C 123.082031 -162.679688 124.804688 -163.144531 125.734375 -162.875 C 126.660156 -162.613281 127.390625 -162.21875 127.921875 -161.6875 C 129.773438 -159.832031 131.492188 -158.90625 133.078125 -158.90625 C 137.316406 -159.164062 140.226562 -157.375 141.8125 -153.53125 C 143.40625 -149.695312 143.144531 -145 141.03125 -139.4375 C 141.03125 -138.644531 140.632812 -136.660156 139.84375 -133.484375 C 137.988281 -127.128906 137.125 -122.757812 137.25 -120.375 C 137.382812 -117.988281 136.921875 -115.535156 135.859375 -113.015625 C 134.804688 -110.503906 133.351562 -108.320312 131.5 -106.46875 C 126.988281 -102.488281 122.085938 -101.296875 116.796875 -102.890625 C 114.410156 -103.953125 112.289062 -105.410156 110.4375 -107.265625 C 96.925781 -111.234375 87.789062 -110.304688 83.03125 -104.484375 C 80.382812 -101.304688 78.925781 -98.523438 78.65625 -96.140625 C 78.394531 -93.753906 78.265625 -89.515625 78.265625 -83.421875 L 78.265625 -68.71875 C 81.703125 -66.34375 84.878906 -63.628906 87.796875 -60.578125 C 90.710938 -57.535156 94.285156 -55.878906 98.515625 -55.609375 C 102.753906 -55.347656 106.53125 -55.679688 109.84375 -56.609375 C 113.15625 -57.535156 116.265625 -58.53125 119.171875 -59.59375 C 125.535156 -62.238281 131.363281 -62.695312 136.65625 -60.96875 C 141.957031 -59.25 145.269531 -56.929688 146.59375 -54.015625 C 147.914062 -51.109375 148.175781 -47.269531 147.375 -42.5 C 146.582031 -37.738281 146.253906 -34.234375 146.390625 -31.984375 C 146.523438 -29.734375 146.59375 -27.679688 146.59375 -25.828125 C 146.59375 -21.316406 144.867188 -16.945312 141.421875 -12.71875 C 137.710938 -7.15625 134.269531 -3.773438 131.09375 -2.578125 C 127.914062 -1.390625 123.8125 -1.125 118.78125 -1.78125 C 113.75 -2.445312 109.644531 -2.179688 106.46875 -0.984375 C 103.289062 0.203125 100.441406 1.722656 97.921875 3.578125 C 95.410156 5.429688 92.960938 7.148438 90.578125 8.734375 C 86.597656 11.390625 82.09375 11.390625 77.0625 8.734375 C 75.207031 7.679688 73.351562 6.625 71.5 5.5625 C 66.738281 3.175781 60.914062 2.179688 54.03125 2.578125 C 47.144531 2.972656 41.050781 0.988281 35.75 -3.375 C 30.457031 -7.75 27.742188 -13.113281 27.609375 -19.46875 C 27.472656 -25.820312 27.800781 -30.390625 28.59375 -33.171875 C 29.394531 -35.953125 30.191406 -38.132812 30.984375 -39.71875 C 32.046875 -43.164062 31.515625 -45.816406 29.390625 -47.671875 C 23.035156 -52.703125 20.785156 -59.320312 22.640625 -67.53125 C 23.429688 -71.769531 24.222656 -75.082031 25.015625 -77.46875 C 25.816406 -79.851562 25.953125 -82.4375 25.421875 -85.21875 C 24.890625 -88 24.691406 -90.515625 24.828125 -92.765625 C 24.960938 -95.015625 24.894531 -97.195312 24.625 -99.3125 C 24.09375 -103.550781 22.238281 -105.9375 19.0625 -106.46875 C 15.09375 -107 12.445312 -111.234375 11.125 -119.171875 C 9.53125 -126.859375 10.125 -134.539062 12.90625 -142.21875 C 15.6875 -149.894531 16.8125 -155.914062 16.28125 -160.28125 C 15.757812 -164.65625 15.363281 -168.695312 15.09375 -172.40625 L 15.5 -187.90625 C 15.5 -195.582031 14.832031 -200.742188 13.5 -203.390625 C 12.175781 -206.046875 11.78125 -209.953125 12.3125 -215.109375 C 12.84375 -220.273438 12.707031 -224.25 11.90625 -227.03125 C 11.113281 -229.8125 10.71875 -232.925781 10.71875 -236.375 Z M 10.71875 -236.375 "/></g></g></g><g fill="#00ffff" fill-opacity="1"><g transform="translate(360.518659, 446.734874)"><g><path d="M 137.453125 -280.46875 C 145.128906 -279.9375 152.015625 -275.960938 158.109375 -268.546875 C 159.171875 -266.960938 160.226562 -265.441406 161.28125 -263.984375 C 162.34375 -262.523438 163.140625 -260.867188 163.671875 -259.015625 C 165.265625 -255.046875 165.796875 -249.351562 165.265625 -241.9375 C 164.734375 -234.519531 165.128906 -228.492188 166.453125 -223.859375 C 167.773438 -219.222656 169.097656 -214.785156 170.421875 -210.546875 C 172.804688 -203.128906 171.351562 -193.195312 166.0625 -180.75 C 162.082031 -169.363281 157.179688 -162.613281 151.359375 -160.5 L 144.203125 -158.109375 C 137.316406 -155.722656 131.421875 -154.859375 126.515625 -155.515625 C 121.617188 -156.179688 118.242188 -157.578125 116.390625 -159.703125 C 111.097656 -166.585938 109.773438 -174.53125 112.421875 -183.53125 C 112.953125 -185.382812 112.953125 -188.296875 112.421875 -192.265625 C 111.890625 -196.242188 109.640625 -198.765625 105.671875 -199.828125 C 103.554688 -200.359375 102.164062 -201.285156 101.5 -202.609375 C 100.832031 -203.929688 100.300781 -205.054688 99.90625 -205.984375 C 99.507812 -206.910156 99.113281 -207.570312 98.71875 -207.96875 C 98.320312 -208.363281 97.0625 -207.765625 94.9375 -206.171875 C 92.820312 -204.585938 91.628906 -203.726562 91.359375 -203.59375 C 91.097656 -203.46875 90.238281 -203.664062 88.78125 -204.1875 C 87.332031 -204.71875 85.941406 -204.585938 84.609375 -203.796875 C 83.285156 -203.003906 81.960938 -201.546875 80.640625 -199.421875 C 75.878906 -191.210938 74.953125 -177.835938 77.859375 -159.296875 C 78.921875 -153.734375 79.984375 -148.570312 81.046875 -143.8125 C 83.160156 -131.894531 84.148438 -123.945312 84.015625 -119.96875 C 83.890625 -116 83.097656 -111.828125 81.640625 -107.453125 C 80.179688 -103.085938 78.921875 -98.785156 77.859375 -94.546875 C 74.679688 -83.691406 75.082031 -74.421875 79.0625 -66.734375 C 83.820312 -57.203125 86.863281 -51.644531 88.1875 -50.0625 C 90.570312 -47.675781 93.484375 -46.679688 96.921875 -47.078125 C 100.367188 -47.472656 103.019531 -49.191406 104.875 -52.234375 C 106.726562 -55.285156 108.445312 -58.597656 110.03125 -62.171875 C 111.625 -65.742188 113.347656 -69.117188 115.203125 -72.296875 C 117.054688 -75.472656 119.238281 -77.328125 121.75 -77.859375 C 124.269531 -78.390625 127.515625 -78.457031 131.484375 -78.0625 C 135.460938 -77.664062 138.179688 -77.46875 139.640625 -77.46875 C 141.097656 -77.46875 142.882812 -76.601562 145 -74.875 C 147.113281 -73.15625 148.238281 -69.316406 148.375 -63.359375 C 148.507812 -57.398438 148.707031 -52.632812 148.96875 -49.0625 C 149.238281 -45.488281 148.3125 -42.3125 146.1875 -39.53125 C 144.070312 -36.75 142.679688 -34.234375 142.015625 -31.984375 C 141.359375 -29.734375 140.894531 -27.546875 140.625 -25.421875 C 140.363281 -19.859375 139.367188 -15.753906 137.640625 -13.109375 C 135.921875 -10.460938 134.332031 -8.273438 132.875 -6.546875 C 131.425781 -4.828125 127.585938 -3.96875 121.359375 -3.96875 C 115.140625 -3.96875 109.515625 -1.054688 104.484375 4.765625 C 99.453125 10.585938 94.679688 13.164062 90.171875 12.5 C 85.671875 11.84375 82.492188 9.132812 80.640625 4.375 C 78.785156 0.132812 74.679688 -2.117188 68.328125 -2.390625 C 66.472656 -2.648438 64.75 -3.109375 63.15625 -3.765625 C 61.570312 -4.429688 59.71875 -4.960938 57.59375 -5.359375 C 55.476562 -5.753906 53.363281 -6.613281 51.25 -7.9375 C 45.945312 -10.851562 41.578125 -15.488281 38.140625 -21.84375 C 36.015625 -25.820312 33.957031 -29.132812 31.96875 -31.78125 C 29.988281 -34.425781 28.335938 -36.941406 27.015625 -39.328125 C 23.566406 -44.628906 22.242188 -49.660156 23.046875 -54.421875 C 24.628906 -67.140625 22.90625 -75.484375 17.875 -79.453125 C 14.957031 -81.304688 13.5 -82.757812 13.5 -83.8125 C 13.5 -84.875 12.972656 -87.128906 11.921875 -90.578125 C 10.328125 -95.347656 10.390625 -100.910156 12.109375 -107.265625 C 13.835938 -113.617188 14.4375 -118.847656 13.90625 -122.953125 C 13.375 -127.054688 12.710938 -131.359375 11.921875 -135.859375 C 10.328125 -147.515625 10.191406 -155.195312 11.515625 -158.90625 C 12.835938 -162.613281 13.164062 -167.910156 12.5 -174.796875 C 11.84375 -181.679688 11.515625 -187.304688 11.515625 -191.671875 C 11.515625 -196.046875 11.179688 -201.804688 10.515625 -208.953125 C 9.859375 -216.109375 9.796875 -223.789062 10.328125 -232 C 12.179688 -252.65625 19.203125 -266.828125 31.390625 -274.515625 C 49.660156 -285.367188 61.3125 -290.53125 66.34375 -290 C 67.925781 -290 69.84375 -289.800781 72.09375 -289.40625 C 74.351562 -289.007812 76.539062 -289.078125 78.65625 -289.609375 C 80.78125 -290.140625 82.632812 -290.929688 84.21875 -291.984375 C 85.8125 -293.046875 87.398438 -294.238281 88.984375 -295.5625 C 95.335938 -301.382812 101.03125 -302.046875 106.0625 -297.546875 C 110.832031 -291.984375 114.539062 -288.273438 117.1875 -286.421875 C 121.695312 -282.984375 128.453125 -281 137.453125 -280.46875 Z M 137.453125 -280.46875 "/></g></g><g transform="translate(535.712797, 446.734874)"><g><path d="M 14.890625 -222.265625 C 14.492188 -225.578125 14.296875 -228.953125 14.296875 -232.390625 C 14.296875 -235.835938 14.828125 -239.878906 15.890625 -244.515625 C 16.953125 -249.148438 19.664062 -253.382812 24.03125 -257.21875 C 28.40625 -261.0625 32.179688 -264.90625 35.359375 -268.75 C 38.535156 -272.59375 41.316406 -276.5 43.703125 -280.46875 C 46.085938 -284.4375 49 -287.613281 52.4375 -290 C 64.351562 -298.207031 81.039062 -301.382812 102.5 -299.53125 C 111.238281 -298.738281 120.503906 -295.5625 130.296875 -290 C 135.066406 -287.351562 139.171875 -282.519531 142.609375 -275.5 C 146.054688 -268.476562 148.441406 -263.644531 149.765625 -261 C 151.085938 -258.351562 152.804688 -256.429688 154.921875 -255.234375 C 157.046875 -254.046875 158.96875 -252.390625 160.6875 -250.265625 C 162.414062 -248.148438 164.269531 -244.773438 166.25 -240.140625 C 168.238281 -235.503906 170.03125 -230.144531 171.625 -224.0625 C 175.851562 -210.019531 177.703125 -198.226562 177.171875 -188.6875 C 176.648438 -179.15625 176.253906 -169.492188 175.984375 -159.703125 C 175.453125 -142.222656 173.726562 -129.640625 170.8125 -121.953125 C 167.90625 -114.273438 165.722656 -107.851562 164.265625 -102.6875 C 162.804688 -97.53125 161.941406 -92.832031 161.671875 -88.59375 C 161.410156 -84.351562 161.28125 -80.25 161.28125 -76.28125 C 160.757812 -65.6875 160.035156 -59.328125 159.109375 -57.203125 C 158.179688 -55.085938 156.65625 -52.96875 154.53125 -50.84375 C 152.414062 -48.726562 150.097656 -46.675781 147.578125 -44.6875 C 145.066406 -42.707031 142.617188 -40.789062 140.234375 -38.9375 C 137.847656 -37.082031 136.125 -35.554688 135.0625 -34.359375 C 134.007812 -33.171875 132.753906 -31.515625 131.296875 -29.390625 C 129.835938 -27.273438 128.378906 -25.023438 126.921875 -22.640625 C 125.460938 -20.253906 124.140625 -18.066406 122.953125 -16.078125 C 121.765625 -14.097656 120.90625 -12.644531 120.375 -11.71875 C 119.84375 -10.789062 118.914062 -9.132812 117.59375 -6.75 C 116.269531 -4.363281 114.679688 -1.847656 112.828125 0.796875 C 102.492188 13.503906 92.691406 14.035156 83.421875 2.390625 C 82.628906 1.054688 81.367188 0.390625 79.640625 0.390625 C 77.921875 0.390625 75.9375 0.984375 73.6875 2.171875 C 71.4375 3.367188 68.328125 3.304688 64.359375 1.984375 C 60.378906 0.660156 57.265625 -1.519531 55.015625 -4.5625 C 52.765625 -7.613281 50.644531 -10.066406 48.65625 -11.921875 C 46.675781 -13.773438 44.757812 -15.226562 42.90625 -16.28125 C 41.050781 -17.34375 39.195312 -18.269531 37.34375 -19.0625 C 32.3125 -21.71875 29.660156 -23.90625 29.390625 -25.625 C 29.128906 -27.34375 28.929688 -28.992188 28.796875 -30.578125 C 28.671875 -32.171875 28.34375 -34.160156 27.8125 -36.546875 C 25.6875 -49.253906 20.519531 -67.265625 12.3125 -90.578125 C 5.957031 -108.054688 4.238281 -126.195312 7.15625 -145 C 9.269531 -158.769531 11.253906 -170.289062 13.109375 -179.5625 C 16.023438 -193.601562 17.148438 -203.398438 16.484375 -208.953125 C 15.828125 -214.515625 15.296875 -218.953125 14.890625 -222.265625 Z M 91.953125 -199.625 C 87.054688 -199.226562 83.8125 -197.375 82.21875 -194.0625 C 80.632812 -190.75 79.445312 -187.566406 78.65625 -184.515625 C 77.863281 -181.472656 76.867188 -179.023438 75.671875 -177.171875 C 74.484375 -175.316406 73.359375 -173.46875 72.296875 -171.625 C 67.796875 -165 67.269531 -158.109375 70.71875 -150.953125 C 75.75 -140.628906 78.394531 -133.8125 78.65625 -130.5 C 78.925781 -127.1875 79.191406 -122.414062 79.453125 -116.1875 C 79.710938 -109.96875 80.242188 -103.550781 81.046875 -96.9375 C 83.421875 -80.25 86.992188 -71.90625 91.765625 -71.90625 C 94.410156 -71.90625 96.925781 -74.953125 99.3125 -81.046875 C 99.84375 -82.367188 100.171875 -84.617188 100.296875 -87.796875 C 100.429688 -90.972656 100.898438 -94.679688 101.703125 -98.921875 C 104.609375 -114.015625 105.726562 -124.472656 105.0625 -130.296875 C 104.40625 -136.128906 104.007812 -141.296875 103.875 -145.796875 C 103.75 -150.296875 103.6875 -154.929688 103.6875 -159.703125 L 103.6875 -183.9375 C 103.6875 -189.757812 102.957031 -193.925781 101.5 -196.4375 C 100.039062 -198.957031 96.859375 -200.019531 91.953125 -199.625 Z M 91.953125 -199.625 "/></g></g><g transform="translate(721.235842, 446.734874)"><g><path d="M 168.828125 -253.65625 C 171.742188 -250.875 173.597656 -246.898438 174.390625 -241.734375 C 175.191406 -236.566406 176.914062 -228.550781 179.5625 -217.6875 C 182.207031 -206.832031 181.675781 -195.179688 177.96875 -182.734375 C 175.851562 -175.585938 174.53125 -169.765625 174 -165.265625 C 172.414062 -156.785156 170.628906 -149.566406 168.640625 -143.609375 C 166.648438 -137.648438 164.726562 -130.363281 162.875 -121.75 C 161.019531 -113.144531 158.632812 -105.726562 155.71875 -99.5 C 152.8125 -93.28125 150.492188 -88.710938 148.765625 -85.796875 C 147.046875 -82.890625 145.523438 -80.242188 144.203125 -77.859375 C 141.023438 -71.765625 139.101562 -67.128906 138.4375 -63.953125 C 137.78125 -60.773438 136.851562 -57.265625 135.65625 -53.421875 C 134.46875 -49.585938 132.945312 -45.816406 131.09375 -42.109375 C 126.0625 -33.628906 119.972656 -30.453125 112.828125 -32.578125 C 103.816406 -25.421875 97.988281 -19.789062 95.34375 -15.6875 C 92.695312 -11.582031 90.3125 -8.601562 88.1875 -6.75 C 86.070312 -4.894531 84.019531 -3.570312 82.03125 -2.78125 C 80.050781 -1.988281 78.132812 -1.328125 76.28125 -0.796875 C 74.425781 -0.265625 72.570312 0.660156 70.71875 1.984375 C 68.863281 3.304688 66.28125 4.429688 62.96875 5.359375 C 59.65625 6.285156 56.273438 6.351562 52.828125 5.5625 C 44.359375 3.96875 39.859375 -2.914062 39.328125 -15.09375 C 32.441406 -17.738281 28.070312 -20.253906 26.21875 -22.640625 C 21.976562 -27.410156 19.859375 -33.566406 19.859375 -41.109375 C 19.859375 -48.660156 20.320312 -54.753906 21.25 -59.390625 C 22.175781 -64.023438 23.035156 -68.460938 23.828125 -72.703125 C 26.210938 -83.023438 26.609375 -91.164062 25.015625 -97.125 C 23.429688 -103.082031 22.96875 -108.644531 23.625 -113.8125 C 24.289062 -118.976562 24.425781 -124.671875 24.03125 -130.890625 C 23.632812 -137.117188 23.632812 -142.613281 24.03125 -147.375 C 24.425781 -152.144531 24.820312 -156.710938 25.21875 -161.078125 C 25.625 -165.453125 25.828125 -169.492188 25.828125 -173.203125 C 25.828125 -176.910156 25.03125 -180.421875 23.4375 -183.734375 C 21.851562 -187.046875 20.597656 -190.421875 19.671875 -193.859375 C 18.742188 -197.304688 18.015625 -200.488281 17.484375 -203.40625 C 16.679688 -210.550781 15.421875 -215.710938 13.703125 -218.890625 C 11.984375 -222.066406 11.253906 -225.835938 11.515625 -230.203125 C 11.785156 -234.578125 11.457031 -238.945312 10.53125 -243.3125 C 9.601562 -247.6875 9.203125 -251.128906 9.328125 -253.640625 C 9.460938 -256.160156 9.195312 -258.8125 8.53125 -261.59375 C 7.875 -264.375 8.078125 -266.03125 9.140625 -266.5625 C 10.722656 -267.351562 12.175781 -270.660156 13.5 -276.484375 C 14.832031 -282.316406 16.425781 -285.960938 18.28125 -287.421875 C 20.132812 -288.878906 22.117188 -290.203125 24.234375 -291.390625 C 26.347656 -292.585938 28.734375 -293.445312 31.390625 -293.96875 C 37.472656 -294.769531 43.097656 -293.710938 48.265625 -290.796875 C 53.429688 -287.878906 57.269531 -286.550781 59.78125 -286.8125 C 62.300781 -287.082031 64.882812 -287.878906 67.53125 -289.203125 C 76.007812 -292.648438 84.21875 -294.375 92.15625 -294.375 C 100.101562 -294.375 105.664062 -293.910156 108.84375 -292.984375 C 112.019531 -292.054688 114.535156 -291.128906 116.390625 -290.203125 C 118.242188 -289.273438 120.03125 -288.347656 121.75 -287.421875 C 123.476562 -286.492188 126 -286.03125 129.3125 -286.03125 C 132.625 -286.03125 135.070312 -285.234375 136.65625 -283.640625 C 138.25 -282.054688 139.769531 -280.203125 141.21875 -278.078125 C 142.675781 -275.960938 144.332031 -273.84375 146.1875 -271.71875 C 148.039062 -269.601562 150.488281 -268.210938 153.53125 -267.546875 C 156.582031 -266.890625 158.570312 -266.226562 159.5 -265.5625 C 160.425781 -264.90625 161.15625 -264.113281 161.6875 -263.1875 C 162.21875 -262.257812 162.8125 -261.132812 163.46875 -259.8125 C 164.132812 -258.488281 165.921875 -256.4375 168.828125 -253.65625 Z M 85.015625 -192.265625 C 82.367188 -189.359375 81.304688 -184.660156 81.828125 -178.171875 C 82.359375 -171.679688 83.285156 -164.394531 84.609375 -156.3125 C 85.941406 -148.238281 86.472656 -141.550781 86.203125 -136.25 C 85.941406 -130.957031 85.476562 -125.796875 84.8125 -120.765625 C 84.15625 -115.734375 83.492188 -110.703125 82.828125 -105.671875 C 82.171875 -100.640625 81.84375 -95.671875 81.84375 -90.765625 C 81.84375 -85.867188 82.503906 -82.359375 83.828125 -80.234375 C 85.148438 -78.117188 86.601562 -77.128906 88.1875 -77.265625 C 89.78125 -77.398438 91.367188 -78.457031 92.953125 -80.4375 C 94.546875 -82.425781 95.671875 -85.738281 96.328125 -90.375 C 96.992188 -95.007812 98.71875 -99.507812 101.5 -103.875 C 104.28125 -108.25 106.460938 -112.6875 108.046875 -117.1875 C 109.640625 -121.695312 110.632812 -125.007812 111.03125 -127.125 C 111.425781 -129.238281 111.753906 -131.15625 112.015625 -132.875 C 112.285156 -134.601562 112.488281 -136.457031 112.625 -138.4375 C 112.757812 -140.425781 113.488281 -143.539062 114.8125 -147.78125 C 116.132812 -152.019531 116.332031 -155.789062 115.40625 -159.09375 C 114.476562 -162.40625 113.75 -166.179688 113.21875 -170.421875 C 112.6875 -174.660156 111.820312 -178.566406 110.625 -182.140625 C 109.4375 -185.722656 106.726562 -188.175781 102.5 -189.5 C 100.644531 -190.019531 98.988281 -190.8125 97.53125 -191.875 C 96.070312 -192.9375 94.679688 -193.863281 93.359375 -194.65625 C 90.441406 -195.976562 87.660156 -195.179688 85.015625 -192.265625 Z M 85.015625 -192.265625 "/></g></g><g transform="translate(905.964354, 446.734874)"><g><path d="M 10.71875 -236.375 L 11.515625 -259.015625 C 11.515625 -262.722656 11.179688 -266.429688 10.515625 -270.140625 C 9.859375 -273.847656 10.785156 -277.753906 13.296875 -281.859375 C 15.816406 -285.960938 19.59375 -289.601562 24.625 -292.78125 C 29.65625 -295.957031 35.347656 -297.546875 41.703125 -297.546875 C 48.066406 -297.546875 53.101562 -296.484375 56.8125 -294.359375 C 60.519531 -292.242188 63.960938 -290.523438 67.140625 -289.203125 C 70.316406 -287.878906 73.890625 -286.820312 77.859375 -286.03125 C 86.335938 -284.707031 94.550781 -285.898438 102.5 -289.609375 C 111.238281 -293.835938 118.253906 -293.570312 123.546875 -288.8125 C 129.109375 -288.539062 134.9375 -289.070312 141.03125 -290.40625 C 151.09375 -292.519531 157.976562 -292.648438 161.6875 -290.796875 C 169.894531 -286.023438 171.21875 -276.488281 165.65625 -262.1875 C 164.863281 -260.070312 164.46875 -258.21875 164.46875 -256.625 C 164.46875 -255.039062 164.46875 -253.453125 164.46875 -251.859375 C 164.46875 -247.097656 164.066406 -243.523438 163.265625 -241.140625 C 162.472656 -238.753906 162.078125 -236.765625 162.078125 -235.171875 C 162.078125 -233.585938 162.078125 -231.738281 162.078125 -229.625 C 162.609375 -225.382812 161.945312 -221.273438 160.09375 -217.296875 C 159.03125 -214.921875 158.5 -213.003906 158.5 -211.546875 C 158.5 -210.085938 158.5 -208.695312 158.5 -207.375 C 158.5 -203.925781 156.648438 -200.613281 152.953125 -197.4375 C 146.859375 -191.082031 141.820312 -187.90625 137.84375 -187.90625 C 137.050781 -187.90625 136.257812 -188.171875 135.46875 -188.703125 C 134.675781 -189.234375 133.484375 -189.757812 131.890625 -190.28125 C 125.535156 -192.40625 118.847656 -193.734375 111.828125 -194.265625 C 104.804688 -194.796875 99.707031 -194.660156 96.53125 -193.859375 C 88.582031 -192.273438 83.6875 -188.4375 81.84375 -182.34375 C 79.71875 -175.988281 80.242188 -171.085938 83.421875 -167.640625 C 84.742188 -166.054688 86.195312 -165 87.78125 -164.46875 C 89.375 -163.9375 90.898438 -163.867188 92.359375 -164.265625 C 93.816406 -164.660156 95.800781 -164.59375 98.3125 -164.0625 C 100.832031 -163.539062 103.414062 -162.878906 106.0625 -162.078125 C 113.21875 -160.492188 118.050781 -160.296875 120.5625 -161.484375 C 123.082031 -162.679688 124.804688 -163.144531 125.734375 -162.875 C 126.660156 -162.613281 127.390625 -162.21875 127.921875 -161.6875 C 129.773438 -159.832031 131.492188 -158.90625 133.078125 -158.90625 C 137.316406 -159.164062 140.226562 -157.375 141.8125 -153.53125 C 143.40625 -149.695312 143.144531 -145 141.03125 -139.4375 C 141.03125 -138.644531 140.632812 -136.660156 139.84375 -133.484375 C 137.988281 -127.128906 137.125 -122.757812 137.25 -120.375 C 137.382812 -117.988281 136.921875 -115.535156 135.859375 -113.015625 C 134.804688 -110.503906 133.351562 -108.320312 131.5 -106.46875 C 126.988281 -102.488281 122.085938 -101.296875 116.796875 -102.890625 C 114.410156 -103.953125 112.289062 -105.410156 110.4375 -107.265625 C 96.925781 -111.234375 87.789062 -110.304688 83.03125 -104.484375 C 80.382812 -101.304688 78.925781 -98.523438 78.65625 -96.140625 C 78.394531 -93.753906 78.265625 -89.515625 78.265625 -83.421875 L 78.265625 -68.71875 C 81.703125 -66.34375 84.878906 -63.628906 87.796875 -60.578125 C 90.710938 -57.535156 94.285156 -55.878906 98.515625 -55.609375 C 102.753906 -55.347656 106.53125 -55.679688 109.84375 -56.609375 C 113.15625 -57.535156 116.265625 -58.53125 119.171875 -59.59375 C 125.535156 -62.238281 131.363281 -62.695312 136.65625 -60.96875 C 141.957031 -59.25 145.269531 -56.929688 146.59375 -54.015625 C 147.914062 -51.109375 148.175781 -47.269531 147.375 -42.5 C 146.582031 -37.738281 146.253906 -34.234375 146.390625 -31.984375 C 146.523438 -29.734375 146.59375 -27.679688 146.59375 -25.828125 C 146.59375 -21.316406 144.867188 -16.945312 141.421875 -12.71875 C 137.710938 -7.15625 134.269531 -3.773438 131.09375 -2.578125 C 127.914062 -1.390625 123.8125 -1.125 118.78125 -1.78125 C 113.75 -2.445312 109.644531 -2.179688 106.46875 -0.984375 C 103.289062 0.203125 100.441406 1.722656 97.921875 3.578125 C 95.410156 5.429688 92.960938 7.148438 90.578125 8.734375 C 86.597656 11.390625 82.09375 11.390625 77.0625 8.734375 C 75.207031 7.679688 73.351562 6.625 71.5 5.5625 C 66.738281 3.175781 60.914062 2.179688 54.03125 2.578125 C 47.144531 2.972656 41.050781 0.988281 35.75 -3.375 C 30.457031 -7.75 27.742188 -13.113281 27.609375 -19.46875 C 27.472656 -25.820312 27.800781 -30.390625 28.59375 -33.171875 C 29.394531 -35.953125 30.191406 -38.132812 30.984375 -39.71875 C 32.046875 -43.164062 31.515625 -45.816406 29.390625 -47.671875 C 23.035156 -52.703125 20.785156 -59.320312 22.640625 -67.53125 C 23.429688 -71.769531 24.222656 -75.082031 25.015625 -77.46875 C 25.816406 -79.851562 25.953125 -82.4375 25.421875 -85.21875 C 24.890625 -88 24.691406 -90.515625 24.828125 -92.765625 C 24.960938 -95.015625 24.894531 -97.195312 24.625 -99.3125 C 24.09375 -103.550781 22.238281 -105.9375 19.0625 -106.46875 C 15.09375 -107 12.445312 -111.234375 11.125 -119.171875 C 9.53125 -126.859375 10.125 -134.539062 12.90625 -142.21875 C 15.6875 -149.894531 16.8125 -155.914062 16.28125 -160.28125 C 15.757812 -164.65625 15.363281 -168.695312 15.09375 -172.40625 L 15.5 -187.90625 C 15.5 -195.582031 14.832031 -200.742188 13.5 -203.390625 C 12.175781 -206.046875 11.78125 -209.953125 12.3125 -215.109375 C 12.84375 -220.273438 12.707031 -224.25 11.90625 -227.03125 C 11.113281 -229.8125 10.71875 -232.925781 10.71875 -236.375 Z M 10.71875 -236.375 "/></g></g></g><g fill="#c0c0c0" fill-opacity="1"><g transform="translate(361.863269, 456.302371)"><g><path d="M 137.453125 -280.46875 C 145.128906 -279.9375 152.015625 -275.960938 158.109375 -268.546875 C 159.171875 -266.960938 160.226562 -265.441406 161.28125 -263.984375 C 162.34375 -262.523438 163.140625 -260.867188 163.671875 -259.015625 C 165.265625 -255.046875 165.796875 -249.351562 165.265625 -241.9375 C 164.734375 -234.519531 165.128906 -228.492188 166.453125 -223.859375 C 167.773438 -219.222656 169.097656 -214.785156 170.421875 -210.546875 C 172.804688 -203.128906 171.351562 -193.195312 166.0625 -180.75 C 162.082031 -169.363281 157.179688 -162.613281 151.359375 -160.5 L 144.203125 -158.109375 C 137.316406 -155.722656 131.421875 -154.859375 126.515625 -155.515625 C 121.617188 -156.179688 118.242188 -157.578125 116.390625 -159.703125 C 111.097656 -166.585938 109.773438 -174.53125 112.421875 -183.53125 C 112.953125 -185.382812 112.953125 -188.296875 112.421875 -192.265625 C 111.890625 -196.242188 109.640625 -198.765625 105.671875 -199.828125 C 103.554688 -200.359375 102.164062 -201.285156 101.5 -202.609375 C 100.832031 -203.929688 100.300781 -205.054688 99.90625 -205.984375 C 99.507812 -206.910156 99.113281 -207.570312 98.71875 -207.96875 C 98.320312 -208.363281 97.0625 -207.765625 94.9375 -206.171875 C 92.820312 -204.585938 91.628906 -203.726562 91.359375 -203.59375 C 91.097656 -203.46875 90.238281 -203.664062 88.78125 -204.1875 C 87.332031 -204.71875 85.941406 -204.585938 84.609375 -203.796875 C 83.285156 -203.003906 81.960938 -201.546875 80.640625 -199.421875 C 75.878906 -191.210938 74.953125 -177.835938 77.859375 -159.296875 C 78.921875 -153.734375 79.984375 -148.570312 81.046875 -143.8125 C 83.160156 -131.894531 84.148438 -123.945312 84.015625 -119.96875 C 83.890625 -116 83.097656 -111.828125 81.640625 -107.453125 C 80.179688 -103.085938 78.921875 -98.785156 77.859375 -94.546875 C 74.679688 -83.691406 75.082031 -74.421875 79.0625 -66.734375 C 83.820312 -57.203125 86.863281 -51.644531 88.1875 -50.0625 C 90.570312 -47.675781 93.484375 -46.679688 96.921875 -47.078125 C 100.367188 -47.472656 103.019531 -49.191406 104.875 -52.234375 C 106.726562 -55.285156 108.445312 -58.597656 110.03125 -62.171875 C 111.625 -65.742188 113.347656 -69.117188 115.203125 -72.296875 C 117.054688 -75.472656 119.238281 -77.328125 121.75 -77.859375 C 124.269531 -78.390625 127.515625 -78.457031 131.484375 -78.0625 C 135.460938 -77.664062 138.179688 -77.46875 139.640625 -77.46875 C 141.097656 -77.46875 142.882812 -76.601562 145 -74.875 C 147.113281 -73.15625 148.238281 -69.316406 148.375 -63.359375 C 148.507812 -57.398438 148.707031 -52.632812 148.96875 -49.0625 C 149.238281 -45.488281 148.3125 -42.3125 146.1875 -39.53125 C 144.070312 -36.75 142.679688 -34.234375 142.015625 -31.984375 C 141.359375 -29.734375 140.894531 -27.546875 140.625 -25.421875 C 140.363281 -19.859375 139.367188 -15.753906 137.640625 -13.109375 C 135.921875 -10.460938 134.332031 -8.273438 132.875 -6.546875 C 131.425781 -4.828125 127.585938 -3.96875 121.359375 -3.96875 C 115.140625 -3.96875 109.515625 -1.054688 104.484375 4.765625 C 99.453125 10.585938 94.679688 13.164062 90.171875 12.5 C 85.671875 11.84375 82.492188 9.132812 80.640625 4.375 C 78.785156 0.132812 74.679688 -2.117188 68.328125 -2.390625 C 66.472656 -2.648438 64.75 -3.109375 63.15625 -3.765625 C 61.570312 -4.429688 59.71875 -4.960938 57.59375 -5.359375 C 55.476562 -5.753906 53.363281 -6.613281 51.25 -7.9375 C 45.945312 -10.851562 41.578125 -15.488281 38.140625 -21.84375 C 36.015625 -25.820312 33.957031 -29.132812 31.96875 -31.78125 C 29.988281 -34.425781 28.335938 -36.941406 27.015625 -39.328125 C 23.566406 -44.628906 22.242188 -49.660156 23.046875 -54.421875 C 24.628906 -67.140625 22.90625 -75.484375 17.875 -79.453125 C 14.957031 -81.304688 13.5 -82.757812 13.5 -83.8125 C 13.5 -84.875 12.972656 -87.128906 11.921875 -90.578125 C 10.328125 -95.347656 10.390625 -100.910156 12.109375 -107.265625 C 13.835938 -113.617188 14.4375 -118.847656 13.90625 -122.953125 C 13.375 -127.054688 12.710938 -131.359375 11.921875 -135.859375 C 10.328125 -147.515625 10.191406 -155.195312 11.515625 -158.90625 C 12.835938 -162.613281 13.164062 -167.910156 12.5 -174.796875 C 11.84375 -181.679688 11.515625 -187.304688 11.515625 -191.671875 C 11.515625 -196.046875 11.179688 -201.804688 10.515625 -208.953125 C 9.859375 -216.109375 9.796875 -223.789062 10.328125 -232 C 12.179688 -252.65625 19.203125 -266.828125 31.390625 -274.515625 C 49.660156 -285.367188 61.3125 -290.53125 66.34375 -290 C 67.925781 -290 69.84375 -289.800781 72.09375 -289.40625 C 74.351562 -289.007812 76.539062 -289.078125 78.65625 -289.609375 C 80.78125 -290.140625 82.632812 -290.929688 84.21875 -291.984375 C 85.8125 -293.046875 87.398438 -294.238281 88.984375 -295.5625 C 95.335938 -301.382812 101.03125 -302.046875 106.0625 -297.546875 C 110.832031 -291.984375 114.539062 -288.273438 117.1875 -286.421875 C 121.695312 -282.984375 128.453125 -281 137.453125 -280.46875 Z M 137.453125 -280.46875 "/></g></g><g transform="translate(537.057406, 456.302371)"><g><path d="M 14.890625 -222.265625 C 14.492188 -225.578125 14.296875 -228.953125 14.296875 -232.390625 C 14.296875 -235.835938 14.828125 -239.878906 15.890625 -244.515625 C 16.953125 -249.148438 19.664062 -253.382812 24.03125 -257.21875 C 28.40625 -261.0625 32.179688 -264.90625 35.359375 -268.75 C 38.535156 -272.59375 41.316406 -276.5 43.703125 -280.46875 C 46.085938 -284.4375 49 -287.613281 52.4375 -290 C 64.351562 -298.207031 81.039062 -301.382812 102.5 -299.53125 C 111.238281 -298.738281 120.503906 -295.5625 130.296875 -290 C 135.066406 -287.351562 139.171875 -282.519531 142.609375 -275.5 C 146.054688 -268.476562 148.441406 -263.644531 149.765625 -261 C 151.085938 -258.351562 152.804688 -256.429688 154.921875 -255.234375 C 157.046875 -254.046875 158.96875 -252.390625 160.6875 -250.265625 C 162.414062 -248.148438 164.269531 -244.773438 166.25 -240.140625 C 168.238281 -235.503906 170.03125 -230.144531 171.625 -224.0625 C 175.851562 -210.019531 177.703125 -198.226562 177.171875 -188.6875 C 176.648438 -179.15625 176.253906 -169.492188 175.984375 -159.703125 C 175.453125 -142.222656 173.726562 -129.640625 170.8125 -121.953125 C 167.90625 -114.273438 165.722656 -107.851562 164.265625 -102.6875 C 162.804688 -97.53125 161.941406 -92.832031 161.671875 -88.59375 C 161.410156 -84.351562 161.28125 -80.25 161.28125 -76.28125 C 160.757812 -65.6875 160.035156 -59.328125 159.109375 -57.203125 C 158.179688 -55.085938 156.65625 -52.96875 154.53125 -50.84375 C 152.414062 -48.726562 150.097656 -46.675781 147.578125 -44.6875 C 145.066406 -42.707031 142.617188 -40.789062 140.234375 -38.9375 C 137.847656 -37.082031 136.125 -35.554688 135.0625 -34.359375 C 134.007812 -33.171875 132.753906 -31.515625 131.296875 -29.390625 C 129.835938 -27.273438 128.378906 -25.023438 126.921875 -22.640625 C 125.460938 -20.253906 124.140625 -18.066406 122.953125 -16.078125 C 121.765625 -14.097656 120.90625 -12.644531 120.375 -11.71875 C 119.84375 -10.789062 118.914062 -9.132812 117.59375 -6.75 C 116.269531 -4.363281 114.679688 -1.847656 112.828125 0.796875 C 102.492188 13.503906 92.691406 14.035156 83.421875 2.390625 C 82.628906 1.054688 81.367188 0.390625 79.640625 0.390625 C 77.921875 0.390625 75.9375 0.984375 73.6875 2.171875 C 71.4375 3.367188 68.328125 3.304688 64.359375 1.984375 C 60.378906 0.660156 57.265625 -1.519531 55.015625 -4.5625 C 52.765625 -7.613281 50.644531 -10.066406 48.65625 -11.921875 C 46.675781 -13.773438 44.757812 -15.226562 42.90625 -16.28125 C 41.050781 -17.34375 39.195312 -18.269531 37.34375 -19.0625 C 32.3125 -21.71875 29.660156 -23.90625 29.390625 -25.625 C 29.128906 -27.34375 28.929688 -28.992188 28.796875 -30.578125 C 28.671875 -32.171875 28.34375 -34.160156 27.8125 -36.546875 C 25.6875 -49.253906 20.519531 -67.265625 12.3125 -90.578125 C 5.957031 -108.054688 4.238281 -126.195312 7.15625 -145 C 9.269531 -158.769531 11.253906 -170.289062 13.109375 -179.5625 C 16.023438 -193.601562 17.148438 -203.398438 16.484375 -208.953125 C 15.828125 -214.515625 15.296875 -218.953125 14.890625 -222.265625 Z M 91.953125 -199.625 C 87.054688 -199.226562 83.8125 -197.375 82.21875 -194.0625 C 80.632812 -190.75 79.445312 -187.566406 78.65625 -184.515625 C 77.863281 -181.472656 76.867188 -179.023438 75.671875 -177.171875 C 74.484375 -175.316406 73.359375 -173.46875 72.296875 -171.625 C 67.796875 -165 67.269531 -158.109375 70.71875 -150.953125 C 75.75 -140.628906 78.394531 -133.8125 78.65625 -130.5 C 78.925781 -127.1875 79.191406 -122.414062 79.453125 -116.1875 C 79.710938 -109.96875 80.242188 -103.550781 81.046875 -96.9375 C 83.421875 -80.25 86.992188 -71.90625 91.765625 -71.90625 C 94.410156 -71.90625 96.925781 -74.953125 99.3125 -81.046875 C 99.84375 -82.367188 100.171875 -84.617188 100.296875 -87.796875 C 100.429688 -90.972656 100.898438 -94.679688 101.703125 -98.921875 C 104.609375 -114.015625 105.726562 -124.472656 105.0625 -130.296875 C 104.40625 -136.128906 104.007812 -141.296875 103.875 -145.796875 C 103.75 -150.296875 103.6875 -154.929688 103.6875 -159.703125 L 103.6875 -183.9375 C 103.6875 -189.757812 102.957031 -193.925781 101.5 -196.4375 C 100.039062 -198.957031 96.859375 -200.019531 91.953125 -199.625 Z M 91.953125 -199.625 "/></g></g><g transform="translate(722.580451, 456.302371)"><g><path d="M 168.828125 -253.65625 C 171.742188 -250.875 173.597656 -246.898438 174.390625 -241.734375 C 175.191406 -236.566406 176.914062 -228.550781 179.5625 -217.6875 C 182.207031 -206.832031 181.675781 -195.179688 177.96875 -182.734375 C 175.851562 -175.585938 174.53125 -169.765625 174 -165.265625 C 172.414062 -156.785156 170.628906 -149.566406 168.640625 -143.609375 C 166.648438 -137.648438 164.726562 -130.363281 162.875 -121.75 C 161.019531 -113.144531 158.632812 -105.726562 155.71875 -99.5 C 152.8125 -93.28125 150.492188 -88.710938 148.765625 -85.796875 C 147.046875 -82.890625 145.523438 -80.242188 144.203125 -77.859375 C 141.023438 -71.765625 139.101562 -67.128906 138.4375 -63.953125 C 137.78125 -60.773438 136.851562 -57.265625 135.65625 -53.421875 C 134.46875 -49.585938 132.945312 -45.816406 131.09375 -42.109375 C 126.0625 -33.628906 119.972656 -30.453125 112.828125 -32.578125 C 103.816406 -25.421875 97.988281 -19.789062 95.34375 -15.6875 C 92.695312 -11.582031 90.3125 -8.601562 88.1875 -6.75 C 86.070312 -4.894531 84.019531 -3.570312 82.03125 -2.78125 C 80.050781 -1.988281 78.132812 -1.328125 76.28125 -0.796875 C 74.425781 -0.265625 72.570312 0.660156 70.71875 1.984375 C 68.863281 3.304688 66.28125 4.429688 62.96875 5.359375 C 59.65625 6.285156 56.273438 6.351562 52.828125 5.5625 C 44.359375 3.96875 39.859375 -2.914062 39.328125 -15.09375 C 32.441406 -17.738281 28.070312 -20.253906 26.21875 -22.640625 C 21.976562 -27.410156 19.859375 -33.566406 19.859375 -41.109375 C 19.859375 -48.660156 20.320312 -54.753906 21.25 -59.390625 C 22.175781 -64.023438 23.035156 -68.460938 23.828125 -72.703125 C 26.210938 -83.023438 26.609375 -91.164062 25.015625 -97.125 C 23.429688 -103.082031 22.96875 -108.644531 23.625 -113.8125 C 24.289062 -118.976562 24.425781 -124.671875 24.03125 -130.890625 C 23.632812 -137.117188 23.632812 -142.613281 24.03125 -147.375 C 24.425781 -152.144531 24.820312 -156.710938 25.21875 -161.078125 C 25.625 -165.453125 25.828125 -169.492188 25.828125 -173.203125 C 25.828125 -176.910156 25.03125 -180.421875 23.4375 -183.734375 C 21.851562 -187.046875 20.597656 -190.421875 19.671875 -193.859375 C 18.742188 -197.304688 18.015625 -200.488281 17.484375 -203.40625 C 16.679688 -210.550781 15.421875 -215.710938 13.703125 -218.890625 C 11.984375 -222.066406 11.253906 -225.835938 11.515625 -230.203125 C 11.785156 -234.578125 11.457031 -238.945312 10.53125 -243.3125 C 9.601562 -247.6875 9.203125 -251.128906 9.328125 -253.640625 C 9.460938 -256.160156 9.195312 -258.8125 8.53125 -261.59375 C 7.875 -264.375 8.078125 -266.03125 9.140625 -266.5625 C 10.722656 -267.351562 12.175781 -270.660156 13.5 -276.484375 C 14.832031 -282.316406 16.425781 -285.960938 18.28125 -287.421875 C 20.132812 -288.878906 22.117188 -290.203125 24.234375 -291.390625 C 26.347656 -292.585938 28.734375 -293.445312 31.390625 -293.96875 C 37.472656 -294.769531 43.097656 -293.710938 48.265625 -290.796875 C 53.429688 -287.878906 57.269531 -286.550781 59.78125 -286.8125 C 62.300781 -287.082031 64.882812 -287.878906 67.53125 -289.203125 C 76.007812 -292.648438 84.21875 -294.375 92.15625 -294.375 C 100.101562 -294.375 105.664062 -293.910156 108.84375 -292.984375 C 112.019531 -292.054688 114.535156 -291.128906 116.390625 -290.203125 C 118.242188 -289.273438 120.03125 -288.347656 121.75 -287.421875 C 123.476562 -286.492188 126 -286.03125 129.3125 -286.03125 C 132.625 -286.03125 135.070312 -285.234375 136.65625 -283.640625 C 138.25 -282.054688 139.769531 -280.203125 141.21875 -278.078125 C 142.675781 -275.960938 144.332031 -273.84375 146.1875 -271.71875 C 148.039062 -269.601562 150.488281 -268.210938 153.53125 -267.546875 C 156.582031 -266.890625 158.570312 -266.226562 159.5 -265.5625 C 160.425781 -264.90625 161.15625 -264.113281 161.6875 -263.1875 C 162.21875 -262.257812 162.8125 -261.132812 163.46875 -259.8125 C 164.132812 -258.488281 165.921875 -256.4375 168.828125 -253.65625 Z M 85.015625 -192.265625 C 82.367188 -189.359375 81.304688 -184.660156 81.828125 -178.171875 C 82.359375 -171.679688 83.285156 -164.394531 84.609375 -156.3125 C 85.941406 -148.238281 86.472656 -141.550781 86.203125 -136.25 C 85.941406 -130.957031 85.476562 -125.796875 84.8125 -120.765625 C 84.15625 -115.734375 83.492188 -110.703125 82.828125 -105.671875 C 82.171875 -100.640625 81.84375 -95.671875 81.84375 -90.765625 C 81.84375 -85.867188 82.503906 -82.359375 83.828125 -80.234375 C 85.148438 -78.117188 86.601562 -77.128906 88.1875 -77.265625 C 89.78125 -77.398438 91.367188 -78.457031 92.953125 -80.4375 C 94.546875 -82.425781 95.671875 -85.738281 96.328125 -90.375 C 96.992188 -95.007812 98.71875 -99.507812 101.5 -103.875 C 104.28125 -108.25 106.460938 -112.6875 108.046875 -117.1875 C 109.640625 -121.695312 110.632812 -125.007812 111.03125 -127.125 C 111.425781 -129.238281 111.753906 -131.15625 112.015625 -132.875 C 112.285156 -134.601562 112.488281 -136.457031 112.625 -138.4375 C 112.757812 -140.425781 113.488281 -143.539062 114.8125 -147.78125 C 116.132812 -152.019531 116.332031 -155.789062 115.40625 -159.09375 C 114.476562 -162.40625 113.75 -166.179688 113.21875 -170.421875 C 112.6875 -174.660156 111.820312 -178.566406 110.625 -182.140625 C 109.4375 -185.722656 106.726562 -188.175781 102.5 -189.5 C 100.644531 -190.019531 98.988281 -190.8125 97.53125 -191.875 C 96.070312 -192.9375 94.679688 -193.863281 93.359375 -194.65625 C 90.441406 -195.976562 87.660156 -195.179688 85.015625 -192.265625 Z M 85.015625 -192.265625 "/></g></g><g transform="translate(907.308964, 456.302371)"><g><path d="M 10.71875 -236.375 L 11.515625 -259.015625 C 11.515625 -262.722656 11.179688 -266.429688 10.515625 -270.140625 C 9.859375 -273.847656 10.785156 -277.753906 13.296875 -281.859375 C 15.816406 -285.960938 19.59375 -289.601562 24.625 -292.78125 C 29.65625 -295.957031 35.347656 -297.546875 41.703125 -297.546875 C 48.066406 -297.546875 53.101562 -296.484375 56.8125 -294.359375 C 60.519531 -292.242188 63.960938 -290.523438 67.140625 -289.203125 C 70.316406 -287.878906 73.890625 -286.820312 77.859375 -286.03125 C 86.335938 -284.707031 94.550781 -285.898438 102.5 -289.609375 C 111.238281 -293.835938 118.253906 -293.570312 123.546875 -288.8125 C 129.109375 -288.539062 134.9375 -289.070312 141.03125 -290.40625 C 151.09375 -292.519531 157.976562 -292.648438 161.6875 -290.796875 C 169.894531 -286.023438 171.21875 -276.488281 165.65625 -262.1875 C 164.863281 -260.070312 164.46875 -258.21875 164.46875 -256.625 C 164.46875 -255.039062 164.46875 -253.453125 164.46875 -251.859375 C 164.46875 -247.097656 164.066406 -243.523438 163.265625 -241.140625 C 162.472656 -238.753906 162.078125 -236.765625 162.078125 -235.171875 C 162.078125 -233.585938 162.078125 -231.738281 162.078125 -229.625 C 162.609375 -225.382812 161.945312 -221.273438 160.09375 -217.296875 C 159.03125 -214.921875 158.5 -213.003906 158.5 -211.546875 C 158.5 -210.085938 158.5 -208.695312 158.5 -207.375 C 158.5 -203.925781 156.648438 -200.613281 152.953125 -197.4375 C 146.859375 -191.082031 141.820312 -187.90625 137.84375 -187.90625 C 137.050781 -187.90625 136.257812 -188.171875 135.46875 -188.703125 C 134.675781 -189.234375 133.484375 -189.757812 131.890625 -190.28125 C 125.535156 -192.40625 118.847656 -193.734375 111.828125 -194.265625 C 104.804688 -194.796875 99.707031 -194.660156 96.53125 -193.859375 C 88.582031 -192.273438 83.6875 -188.4375 81.84375 -182.34375 C 79.71875 -175.988281 80.242188 -171.085938 83.421875 -167.640625 C 84.742188 -166.054688 86.195312 -165 87.78125 -164.46875 C 89.375 -163.9375 90.898438 -163.867188 92.359375 -164.265625 C 93.816406 -164.660156 95.800781 -164.59375 98.3125 -164.0625 C 100.832031 -163.539062 103.414062 -162.878906 106.0625 -162.078125 C 113.21875 -160.492188 118.050781 -160.296875 120.5625 -161.484375 C 123.082031 -162.679688 124.804688 -163.144531 125.734375 -162.875 C 126.660156 -162.613281 127.390625 -162.21875 127.921875 -161.6875 C 129.773438 -159.832031 131.492188 -158.90625 133.078125 -158.90625 C 137.316406 -159.164062 140.226562 -157.375 141.8125 -153.53125 C 143.40625 -149.695312 143.144531 -145 141.03125 -139.4375 C 141.03125 -138.644531 140.632812 -136.660156 139.84375 -133.484375 C 137.988281 -127.128906 137.125 -122.757812 137.25 -120.375 C 137.382812 -117.988281 136.921875 -115.535156 135.859375 -113.015625 C 134.804688 -110.503906 133.351562 -108.320312 131.5 -106.46875 C 126.988281 -102.488281 122.085938 -101.296875 116.796875 -102.890625 C 114.410156 -103.953125 112.289062 -105.410156 110.4375 -107.265625 C 96.925781 -111.234375 87.789062 -110.304688 83.03125 -104.484375 C 80.382812 -101.304688 78.925781 -98.523438 78.65625 -96.140625 C 78.394531 -93.753906 78.265625 -89.515625 78.265625 -83.421875 L 78.265625 -68.71875 C 81.703125 -66.34375 84.878906 -63.628906 87.796875 -60.578125 C 90.710938 -57.535156 94.285156 -55.878906 98.515625 -55.609375 C 102.753906 -55.347656 106.53125 -55.679688 109.84375 -56.609375 C 113.15625 -57.535156 116.265625 -58.53125 119.171875 -59.59375 C 125.535156 -62.238281 131.363281 -62.695312 136.65625 -60.96875 C 141.957031 -59.25 145.269531 -56.929688 146.59375 -54.015625 C 147.914062 -51.109375 148.175781 -47.269531 147.375 -42.5 C 146.582031 -37.738281 146.253906 -34.234375 146.390625 -31.984375 C 146.523438 -29.734375 146.59375 -27.679688 146.59375 -25.828125 C 146.59375 -21.316406 144.867188 -16.945312 141.421875 -12.71875 C 137.710938 -7.15625 134.269531 -3.773438 131.09375 -2.578125 C 127.914062 -1.390625 123.8125 -1.125 118.78125 -1.78125 C 113.75 -2.445312 109.644531 -2.179688 106.46875 -0.984375 C 103.289062 0.203125 100.441406 1.722656 97.921875 3.578125 C 95.410156 5.429688 92.960938 7.148438 90.578125 8.734375 C 86.597656 11.390625 82.09375 11.390625 77.0625 8.734375 C 75.207031 7.679688 73.351562 6.625 71.5 5.5625 C 66.738281 3.175781 60.914062 2.179688 54.03125 2.578125 C 47.144531 2.972656 41.050781 0.988281 35.75 -3.375 C 30.457031 -7.75 27.742188 -13.113281 27.609375 -19.46875 C 27.472656 -25.820312 27.800781 -30.390625 28.59375 -33.171875 C 29.394531 -35.953125 30.191406 -38.132812 30.984375 -39.71875 C 32.046875 -43.164062 31.515625 -45.816406 29.390625 -47.671875 C 23.035156 -52.703125 20.785156 -59.320312 22.640625 -67.53125 C 23.429688 -71.769531 24.222656 -75.082031 25.015625 -77.46875 C 25.816406 -79.851562 25.953125 -82.4375 25.421875 -85.21875 C 24.890625 -88 24.691406 -90.515625 24.828125 -92.765625 C 24.960938 -95.015625 24.894531 -97.195312 24.625 -99.3125 C 24.09375 -103.550781 22.238281 -105.9375 19.0625 -106.46875 C 15.09375 -107 12.445312 -111.234375 11.125 -119.171875 C 9.53125 -126.859375 10.125 -134.539062 12.90625 -142.21875 C 15.6875 -149.894531 16.8125 -155.914062 16.28125 -160.28125 C 15.757812 -164.65625 15.363281 -168.695312 15.09375 -172.40625 L 15.5 -187.90625 C 15.5 -195.582031 14.832031 -200.742188 13.5 -203.390625 C 12.175781 -206.046875 11.78125 -209.953125 12.3125 -215.109375 C 12.84375 -220.273438 12.707031 -224.25 11.90625 -227.03125 C 11.113281 -229.8125 10.71875 -232.925781 10.71875 -236.375 Z M 10.71875 -236.375 "/></g></g></g><g fill="#9d3be1" fill-opacity="1"><g transform="translate(258.343173, 646.686164)"><g><path d="M 55.855469 -222.835938 C 12.15625 -17.941406 12.15625 -15.628906 12.15625 -13.890625 C 12.15625 0 24.308594 0 28.941406 0 L 106.207031 0 C 109.390625 0 112.285156 -2.605469 113.152344 -5.789062 L 118.363281 -31.542969 L 118.363281 -32.703125 C 118.363281 -35.304688 116.625 -37.332031 113.734375 -37.332031 L 62.507812 -37.332031 L 98.394531 -205.761719 L 146.722656 -205.761719 C 149.90625 -205.761719 153.089844 -208.367188 153.667969 -211.550781 L 159.457031 -238.460938 C 159.457031 -241.066406 157.722656 -243.09375 154.828125 -243.09375 L 80.453125 -243.09375 C 75.242188 -243.09375 60.195312 -243.09375 55.855469 -222.835938 Z M 55.855469 -222.835938 "/></g></g></g><g fill="#9d3be1" fill-opacity="1"><g transform="translate(388.852208, 646.686164)"><g><path d="M 144.988281 -141.515625 C 162.929688 -225.441406 163.21875 -227.464844 163.21875 -229.492188 C 163.21875 -242.804688 151.355469 -243.09375 146.722656 -243.09375 L 65.984375 -243.09375 C 62.800781 -243.09375 59.617188 -240.488281 59.035156 -237.304688 C 9.839844 -5.210938 9.550781 -4.628906 9.550781 -4.339844 C 9.550781 -1.738281 11.867188 0 14.46875 0 L 48.90625 0 C 52.089844 0 54.984375 -2.605469 55.855469 -5.789062 L 76.402344 -103.023438 L 90.292969 -103.023438 C 69.746094 -5.210938 69.457031 -4.628906 69.457031 -4.339844 C 69.457031 -1.738281 71.769531 0 74.375 0 L 108.8125 0 C 111.996094 0 114.890625 -2.605469 115.757812 -5.789062 C 136.304688 -102.15625 136.59375 -104.183594 136.59375 -106.207031 C 136.59375 -119.808594 124.730469 -119.808594 120.101562 -119.808594 L 120.679688 -121.257812 C 125.886719 -121.257812 140.9375 -121.257812 144.988281 -141.515625 Z M 98.394531 -205.761719 L 112.285156 -205.761719 L 98.105469 -140.066406 L 84.214844 -140.066406 Z M 98.394531 -205.761719 "/></g></g></g><g fill="#9d3be1" fill-opacity="1"><g transform="translate(527.174335, 646.686164)"><g><path d="M 80.164062 -243.09375 C 74.953125 -243.09375 60.195312 -242.804688 55.855469 -222.835938 C 9.839844 -5.210938 9.550781 -4.628906 9.550781 -4.339844 C 9.550781 -1.738281 11.867188 0 14.46875 0 L 48.90625 0 C 52.089844 0 54.984375 -2.605469 55.855469 -5.789062 L 72.636719 -85.660156 L 86.53125 -85.660156 C 69.746094 -5.210938 69.457031 -4.628906 69.457031 -4.339844 C 69.457031 -1.738281 71.769531 0 74.375 0 L 108.8125 0 C 111.996094 0 114.890625 -2.605469 115.757812 -5.789062 C 162.929688 -225.441406 163.21875 -227.464844 163.21875 -229.492188 C 163.21875 -242.804688 151.355469 -243.09375 146.722656 -243.09375 Z M 98.394531 -205.761719 L 112.285156 -205.761719 L 94.632812 -122.703125 L 80.742188 -122.703125 Z M 98.394531 -205.761719 "/></g></g></g><g fill="#9d3be1" fill-opacity="1"><g transform="translate(665.496446, 646.686164)"><g><path d="M 9.839844 -5.789062 C 9.839844 -5.210938 9.550781 -4.628906 9.550781 -4.339844 C 9.550781 -1.738281 11.867188 0 14.46875 0 L 48.90625 0 C 52.089844 0 54.984375 -2.605469 55.855469 -5.789062 L 72.636719 -85.660156 L 109.679688 -85.660156 C 112.863281 -85.660156 116.046875 -88.265625 116.917969 -91.449219 C 122.703125 -120.390625 122.992188 -120.679688 122.992188 -121.257812 C 122.992188 -123.863281 120.96875 -125.597656 118.363281 -125.597656 L 81.320312 -125.597656 L 98.394531 -205.761719 L 143.832031 -205.761719 C 147.011719 -205.761719 150.195312 -208.367188 150.777344 -211.550781 L 156.5625 -238.460938 C 156.5625 -241.066406 154.828125 -243.09375 151.933594 -243.09375 L 65.984375 -243.09375 C 62.800781 -243.09375 59.617188 -240.488281 59.035156 -237.304688 Z M 9.839844 -5.789062 "/></g></g></g><g fill="#9d3be1" fill-opacity="1"><g transform="translate(791.086097, 646.686164)"><g><path d="M 12.445312 -289.398438 C 9.261719 -289.398438 6.078125 -286.792969 5.5 -283.609375 L 0 -257.851562 C 0 -254.378906 1.738281 -252.066406 4.628906 -252.066406 L 62.21875 -252.066406 C 9.839844 -5.210938 9.550781 -4.628906 9.550781 -4.339844 C 9.550781 -1.738281 11.867188 0 14.46875 0 L 48.617188 0 C 51.800781 0 54.695312 -2.605469 55.5625 -5.789062 L 107.945312 -252.066406 L 165.535156 -252.066406 C 168.71875 -252.066406 171.902344 -254.667969 172.480469 -257.851562 L 177.980469 -284.765625 C 177.980469 -287.371094 176.242188 -289.398438 173.347656 -289.398438 Z M 12.445312 -289.398438 "/></g></g></g><g fill="#9d3be1" fill-opacity="1"><g transform="translate(868.928987, 646.686164)"><g><path d="M 59.035156 -237.304688 C 9.839844 -5.210938 9.550781 -4.628906 9.550781 -4.339844 C 9.550781 -1.738281 11.867188 0 14.46875 0 L 98.972656 0 C 102.15625 0 105.050781 -2.605469 105.917969 -5.789062 L 111.128906 -31.542969 L 111.128906 -32.703125 C 111.128906 -35.304688 109.390625 -37.332031 106.496094 -37.332031 L 62.507812 -37.332031 L 76.980469 -105.917969 L 106.789062 -105.917969 C 109.972656 -105.917969 113.152344 -108.523438 114.023438 -111.707031 C 119.808594 -140.648438 120.101562 -140.9375 120.101562 -141.515625 C 120.101562 -144.121094 118.074219 -145.855469 115.46875 -145.855469 L 85.660156 -145.855469 L 98.394531 -205.761719 L 142.382812 -205.761719 C 145.566406 -205.761719 148.75 -208.367188 149.328125 -211.550781 L 155.117188 -238.460938 C 155.117188 -241.066406 153.378906 -243.09375 150.484375 -243.09375 L 65.984375 -243.09375 C 62.800781 -243.09375 59.617188 -240.488281 59.035156 -237.304688 Z M 59.035156 -237.304688 "/></g></g></g><g fill="#9d3be1" fill-opacity="1"><g transform="translate(996.833673, 646.686164)"><g><path d="M 144.988281 -141.515625 C 162.929688 -225.441406 163.21875 -227.464844 163.21875 -229.492188 C 163.21875 -242.804688 151.355469 -243.09375 146.722656 -243.09375 L 65.984375 -243.09375 C 62.800781 -243.09375 59.617188 -240.488281 59.035156 -237.304688 C 9.839844 -5.210938 9.550781 -4.628906 9.550781 -4.339844 C 9.550781 -1.738281 11.867188 0 14.46875 0 L 48.90625 0 C 52.089844 0 54.984375 -2.605469 55.855469 -5.789062 L 76.402344 -103.023438 L 90.292969 -103.023438 C 69.746094 -5.210938 69.457031 -4.628906 69.457031 -4.339844 C 69.457031 -1.738281 71.769531 0 74.375 0 L 108.8125 0 C 111.996094 0 114.890625 -2.605469 115.757812 -5.789062 C 136.304688 -102.15625 136.59375 -104.183594 136.59375 -106.207031 C 136.59375 -119.808594 124.730469 -119.808594 120.101562 -119.808594 L 120.679688 -121.257812 C 125.886719 -121.257812 140.9375 -121.257812 144.988281 -141.515625 Z M 98.394531 -205.761719 L 112.285156 -205.761719 L 98.105469 -140.066406 L 84.214844 -140.066406 Z M 98.394531 -205.761719 "/></g></g></g><path stroke-linecap="butt" transform="matrix(1.862989, 0, 0, 1.862989, 148.847197, 375.051944)" fill="none" stroke-linejoin="miter" d="M 83.967305 21.384284 C 60.491922 131.368005 60.491922 132.617677 60.491922 133.52977 C 60.491922 141.000544 67.014959 141.000544 69.518496 141.000544 L 110.969447 141.000544 C 112.676214 141.000544 114.232014 139.597808 114.724754 137.891042 L 117.492484 124.08594 L 117.492484 123.440136 C 117.492484 122.0374 116.582488 120.976437 115.026688 120.976437 L 87.531806 120.976437 L 106.798981 30.563922 L 132.738063 30.563922 C 134.44483 30.563922 136.151597 29.159089 136.455628 27.452322 L 139.565131 13.003513 C 139.565131 11.600777 138.617393 10.499976 137.061593 10.499976 L 97.164345 10.499976 C 94.358873 10.499976 86.280037 10.499976 83.967305 21.384284 Z M 201.843251 65.036838 C 211.477887 19.981548 211.628854 18.920585 211.628854 17.819783 C 211.628854 10.65304 205.256784 10.499976 202.793085 10.499976 L 159.444562 10.499976 C 157.737795 10.499976 156.031028 11.904808 155.726997 13.611575 C 129.293078 138.192976 129.142111 138.497007 129.142111 138.685716 C 129.142111 140.052806 130.39388 141.000544 131.796616 141.000544 L 150.26702 141.000544 C 151.973787 141.000544 153.52749 139.597808 154.02023 137.891042 L 165.01986 85.704653 L 172.490635 85.704653 C 161.453263 138.192976 161.302296 138.497007 161.302296 138.685716 C 161.302296 140.052806 162.554064 141.000544 163.9568 141.000544 L 182.427205 141.000544 C 184.133972 141.000544 185.687675 139.597808 186.142673 137.891042 C 197.180045 86.161748 197.331012 85.060946 197.331012 83.999983 C 197.331012 76.680175 190.958942 76.680175 188.495243 76.680175 L 188.797178 75.921146 C 191.604746 75.921146 199.681486 75.921146 201.843251 65.036838 Z M 176.851906 30.563922 L 184.284939 30.563922 L 176.698842 65.833609 L 169.228068 65.833609 Z M 241.314855 10.499976 C 238.507287 10.499976 230.581514 10.65304 228.268782 21.384284 C 203.54163 138.192976 203.388566 138.497007 203.388566 138.685716 C 203.388566 140.052806 204.640335 141.000544 206.045168 141.000544 L 224.513476 141.000544 C 226.220243 141.000544 227.776042 139.597808 228.268782 137.891042 L 237.255518 95.035258 L 244.728389 95.035258 C 235.701815 138.192976 235.550848 138.497007 235.550848 138.685716 C 235.550848 140.052806 236.80052 141.000544 238.205352 141.000544 L 256.67366 141.000544 C 258.380427 141.000544 259.936227 139.597808 260.391225 137.891042 C 285.724342 19.981548 285.875309 18.920585 285.875309 17.819783 C 285.875309 10.65304 279.505336 10.499976 277.03954 10.499976 Z M 251.098362 30.563922 L 258.531394 30.563922 L 249.051919 75.124376 L 241.616789 75.124376 Z M 277.788086 137.891042 C 277.788086 138.192976 277.637119 138.497007 277.637119 138.685716 C 277.637119 140.052806 278.888887 141.000544 280.291623 141.000544 L 298.762028 141.000544 C 300.468795 141.000544 302.022498 139.597808 302.515238 137.891042 L 311.50407 95.035258 L 331.37721 95.035258 C 333.083977 95.035258 334.790744 93.632522 335.283484 91.925755 C 338.392987 76.376144 338.543954 76.225177 338.543954 75.921146 C 338.543954 74.51841 337.445249 73.570673 336.040416 73.570673 L 316.169372 73.570673 L 325.346914 30.563922 L 349.732293 30.563922 C 351.43906 30.563922 353.145827 29.159089 353.447761 27.452322 L 356.55936 13.003513 C 356.55936 11.600777 355.609526 10.499976 354.055823 10.499976 L 307.939569 10.499976 C 306.232802 10.499976 304.526035 11.904808 304.222004 13.611575 Z M 346.603919 -14.340401 C 344.899249 -14.340401 343.192482 -12.937666 342.888451 -11.230899 L 339.929916 2.574203 C 339.929916 4.469679 340.877653 5.683706 342.433453 5.683706 L 373.341869 5.683706 C 345.201183 138.192976 345.050216 138.497007 345.050216 138.685716 C 345.050216 140.052806 346.301985 141.000544 347.704721 141.000544 L 366.022062 141.000544 C 367.728828 141.000544 369.284628 139.597808 369.739626 137.891042 L 397.880312 5.683706 L 428.788727 5.683706 C 430.495494 5.683706 432.202261 4.318712 432.504195 2.574203 L 435.462731 -11.836864 C 435.462731 -13.2396 434.514993 -14.340401 432.959193 -14.340401 Z M 413.419439 13.611575 C 386.98552 138.192976 386.834553 138.497007 386.834553 138.685716 C 386.834553 140.052806 388.086322 141.000544 389.489058 141.000544 L 434.846282 141.000544 C 436.553049 141.000544 438.108849 139.597808 438.563847 137.891042 L 441.369319 124.08594 L 441.369319 123.440136 C 441.369319 122.0374 440.421581 120.976437 438.865781 120.976437 L 415.277173 120.976437 L 423.051978 84.15095 L 439.018845 84.15095 C 440.725612 84.15095 442.47012 82.748214 442.925118 81.041447 C 446.034621 65.491836 446.185588 65.340869 446.185588 65.036838 C 446.185588 63.634102 445.086883 62.724106 443.684147 62.724106 L 427.679539 62.724106 L 434.544348 30.563922 L 458.132956 30.563922 C 459.839723 30.563922 461.54649 29.159089 461.886166 27.452322 L 464.960024 13.003513 C 464.960024 11.600777 464.047931 10.499976 462.494228 10.499976 L 417.134907 10.499976 C 415.430236 10.499976 413.72347 11.904808 413.419439 13.611575 Z M 528.192172 65.036838 C 537.824711 19.981548 537.975678 18.920585 537.975678 17.819783 C 537.975678 10.65304 531.603608 10.499976 529.139909 10.499976 L 485.791386 10.499976 C 484.084619 10.499976 482.377852 11.904808 482.073821 13.611575 C 455.641999 138.192976 455.488935 138.497007 455.488935 138.685716 C 455.488935 140.052806 456.740704 141.000544 458.14344 141.000544 L 476.613845 141.000544 C 478.320612 141.000544 479.874315 139.597808 480.369151 137.891042 L 491.366685 85.704653 L 498.837459 85.704653 C 487.802184 138.192976 487.64912 138.497007 487.64912 138.685716 C 487.64912 140.052806 488.900889 141.000544 490.303625 141.000544 L 508.774029 141.000544 C 510.480796 141.000544 512.034499 139.597808 512.489497 137.891042 C 523.526869 86.161748 523.677836 85.060946 523.677836 83.999983 C 523.677836 76.680175 517.307863 76.680175 514.842068 76.680175 L 515.146099 75.921146 C 517.95157 75.921146 526.030407 75.921146 528.192172 65.036838 Z M 503.19873 30.563922 L 510.631763 30.563922 L 503.047763 65.833609 L 495.576989 65.833609 Z M 503.19873 30.563922 " stroke="#79ffa0" stroke-width="2.912639" stroke-opacity="1" stroke-miterlimit="4"/></svg>